<?xml version="1.0" encoding="utf-8"?>
<!-- Generator: Adobe Illustrator 27.5.0, SVG Export Plug-In . SVG Version: 6.00 Build 0)  -->
<svg version="1.1" xmlns="http://www.w3.org/2000/svg" xmlns:xlink="http://www.w3.org/1999/xlink" x="0px" y="0px"
	 viewBox="0 0 500 500" style="enable-background:new 0 0 500 500;" xml:space="preserve">
<g id="Background_Complete">
	<g>
		<g>
			<g>
				<g>
					<g>
						<g>
							<g>
								<rect x="76.299" y="110.102" style="fill:#EBEBEB;" width="59.606" height="15.769"/>
							</g>
						</g>
					</g>
				</g>
			</g>
		</g>
		<g>
			<g>
				<g>
					<g>
						<g>
							<g>
								<rect x="197.586" y="30.412" style="fill:#EBEBEB;" width="59.606" height="15.769"/>
							</g>
						</g>
					</g>
				</g>
			</g>
		</g>
		<g>
			<g>
				<g>
					<g>
						<g>
							<g>
								<g>
									<path style="fill:#E0E0E0;" d="M110.701,142.48c-0.006-0.006-0.012-0.103-0.019-0.287
										c-0.005-0.211-0.011-0.477-0.019-0.809c-0.011-0.742-0.026-1.777-0.045-3.103c-0.024-2.722-0.059-6.636-0.102-11.57
										l0.185,0.184c-13.61,0.027-35.254,0.071-59.603,0.119c0.134-0.135-0.306,0.303,0.3-0.303v0.004v0.008v0.016v0.032v0.063
										v0.127v0.254l0,0.507v1.011c0,0.673,0,1.343,0,2.012c0,1.337-0.001,2.663-0.001,3.979c-0.002,2.632-0.003,5.22-0.005,7.756
										l-0.297-0.297c16.973,0.054,31.825,0.101,42.477,0.135c5.306,0.036,9.564,0.065,12.538,0.085
										c1.447,0.017,2.58,0.03,3.39,0.039c0.365,0.008,0.657,0.014,0.887,0.019C110.588,142.467,110.695,142.473,110.701,142.48
										c0.006,0.006-0.087,0.013-0.276,0.019c-0.22,0.005-0.5,0.011-0.85,0.019c-0.795,0.009-1.907,0.022-3.326,0.039
										c-2.958,0.02-7.192,0.049-12.469,0.085c-10.704,0.034-25.628,0.081-42.684,0.135l-0.297,0.001l0-0.298
										c-0.002-2.536-0.003-5.124-0.005-7.756c0-1.316-0.001-2.643-0.001-3.979c0-0.668,0-1.339,0-2.012l0-1.011v-0.507v-0.254
										v-0.127v-0.063v-0.032v-0.016v-0.008v-0.004c0.608-0.608,0.171-0.169,0.307-0.304c24.348,0.049,45.993,0.092,59.603,0.119
										l0.186,0l-0.002,0.185c-0.044,4.981-0.078,8.932-0.102,11.68c-0.019,1.309-0.034,2.33-0.045,3.062
										c-0.008,0.319-0.014,0.574-0.019,0.777C110.713,142.402,110.707,142.486,110.701,142.48z"/>
								</g>
							</g>
						</g>
					</g>
				</g>
			</g>
		</g>
	</g>
	<g>
		<g>
			<g>
				<g>
					<g>
						<g>
							<g>
								<g>
									<path style="fill:#E0E0E0;" d="M196.474,207.404c-0.006-0.006-0.012-0.103-0.019-0.287
										c-0.005-0.211-0.011-0.477-0.019-0.809c-0.011-0.742-0.026-1.777-0.045-3.103c-0.024-2.722-0.059-6.636-0.102-11.57
										l0.185,0.184c-13.61,0.027-35.254,0.07-59.603,0.119c0.134-0.135-0.306,0.303,0.3-0.303v0.004v0.008v0.016v0.032v0.063
										v0.127v0.254v0.507v1.011c0,0.673,0,1.343-0.001,2.012c0,1.336-0.001,2.663-0.001,3.979
										c-0.001,2.632-0.003,5.22-0.005,7.756l-0.297-0.297c16.973,0.054,31.825,0.101,42.477,0.135
										c5.306,0.036,9.564,0.065,12.538,0.085c1.447,0.017,2.58,0.03,3.39,0.039c0.365,0.008,0.657,0.014,0.887,0.019
										C196.361,207.391,196.467,207.397,196.474,207.404c0.006,0.006-0.087,0.013-0.276,0.019c-0.22,0.005-0.5,0.011-0.85,0.019
										c-0.796,0.009-1.907,0.022-3.326,0.039c-2.958,0.02-7.192,0.049-12.469,0.085c-10.704,0.034-25.628,0.081-42.684,0.135
										l-0.297,0.001l0-0.298c-0.002-2.536-0.003-5.124-0.005-7.756c0-1.316-0.001-2.643-0.001-3.979c0-0.668,0-1.339,0-2.012
										l0-1.011v-0.507v-0.254v-0.127v-0.063v-0.032v-0.016v-0.008v-0.004c0.608-0.608,0.171-0.169,0.307-0.304
										c24.348,0.048,45.993,0.092,59.603,0.119l0.186,0l-0.002,0.184c-0.044,4.981-0.078,8.932-0.102,11.68
										c-0.019,1.309-0.034,2.33-0.045,3.062c-0.008,0.319-0.014,0.574-0.019,0.777
										C196.486,207.325,196.48,207.41,196.474,207.404z"/>
								</g>
							</g>
						</g>
					</g>
				</g>
			</g>
		</g>
	</g>
	<g>
		<g>
			<g>
				<g>
					<g>
						<g>
							<g>
								<rect x="348.877" y="424.95" style="fill:#EBEBEB;" width="59.606" height="15.769"/>
							</g>
						</g>
					</g>
				</g>
			</g>
		</g>
		<g>
			<g>
				<g>
					<g>
						<g>
							<g>
								<g>
									<path style="fill:#E0E0E0;" d="M383.279,457.328c-0.006-0.006-0.012-0.103-0.018-0.287
										c-0.005-0.211-0.011-0.477-0.019-0.809c-0.011-0.742-0.026-1.777-0.045-3.103c-0.024-2.722-0.059-6.636-0.102-11.57
										l0.185,0.184c-13.61,0.027-35.254,0.07-59.603,0.119c0.134-0.135-0.306,0.303,0.3-0.303v0.004v0.008v0.016v0.032v0.063
										v0.127v0.254l0,0.507v1.011c0,0.673,0,1.343,0,2.012c0,1.336-0.001,2.663-0.001,3.979c-0.002,2.632-0.003,5.22-0.005,7.756
										l-0.297-0.297c16.973,0.054,31.825,0.101,42.477,0.135c5.306,0.036,9.564,0.065,12.538,0.085
										c1.447,0.017,2.58,0.03,3.39,0.039c0.365,0.008,0.657,0.014,0.887,0.019C383.166,457.315,383.272,457.321,383.279,457.328
										c0.006,0.006-0.087,0.013-0.276,0.019c-0.22,0.005-0.5,0.011-0.85,0.019c-0.795,0.009-1.907,0.022-3.326,0.039
										c-2.958,0.02-7.192,0.049-12.469,0.085c-10.704,0.034-25.628,0.081-42.684,0.135l-0.297,0.001l0-0.298
										c-0.002-2.536-0.003-5.124-0.005-7.756c0-1.316-0.001-2.643-0.001-3.979c0-0.668,0-1.339,0-2.012l0-1.011v-0.507v-0.254
										v-0.127v-0.063v-0.032v-0.016v-0.008v-0.004c0.608-0.608,0.171-0.168,0.307-0.304c24.348,0.049,45.993,0.092,59.603,0.119
										l0.186,0l-0.001,0.185c-0.044,4.981-0.078,8.932-0.102,11.68c-0.019,1.309-0.034,2.33-0.045,3.062
										c-0.008,0.319-0.014,0.574-0.019,0.777C383.291,457.249,383.285,457.334,383.279,457.328z"/>
								</g>
							</g>
						</g>
					</g>
				</g>
			</g>
		</g>
	</g>
	<g>
		<g>
			<g>
				<g>
					<g>
						<g>
							<g>
								<g>
									<path style="fill:#E0E0E0;" d="M436.546,111.571c-0.006-0.006-0.012-0.103-0.018-0.286
										c-0.005-0.211-0.011-0.477-0.02-0.809c-0.011-0.742-0.026-1.777-0.045-3.103c-0.024-2.722-0.059-6.636-0.102-11.57
										l0.185,0.185c-13.61,0.027-35.254,0.07-59.602,0.119c0.134-0.135-0.306,0.303,0.3-0.303v0.004v0.008v0.016v0.032v0.063
										v0.127l0,0.254v0.507v1.011c0,0.673,0,1.343,0,2.011c0,1.337-0.001,2.663-0.001,3.979
										c-0.002,2.632-0.003,5.221-0.005,7.756l-0.297-0.297c16.973,0.054,31.825,0.101,42.477,0.135
										c5.306,0.036,9.564,0.065,12.538,0.085c1.447,0.017,2.58,0.03,3.39,0.039c0.365,0.008,0.657,0.014,0.887,0.019
										C436.434,111.558,436.54,111.564,436.546,111.571c0.007,0.006-0.087,0.013-0.276,0.019c-0.221,0.005-0.5,0.011-0.85,0.019
										c-0.795,0.009-1.907,0.022-3.326,0.039c-2.958,0.02-7.192,0.049-12.469,0.085c-10.704,0.034-25.628,0.081-42.684,0.135
										l-0.297,0.001l0-0.298c-0.002-2.535-0.003-5.124-0.005-7.756c0-1.316-0.001-2.643-0.001-3.979c0-0.668,0-1.339,0-2.011
										l0-1.011v-0.507v-0.254v-0.127v-0.063V95.83v-0.016v-0.008v-0.004c0.608-0.608,0.171-0.169,0.307-0.304
										c24.348,0.049,45.993,0.092,59.602,0.119l0.186,0l-0.001,0.185c-0.044,4.981-0.078,8.932-0.102,11.68
										c-0.019,1.309-0.034,2.33-0.045,3.062c-0.008,0.319-0.014,0.574-0.019,0.776
										C436.559,111.492,436.552,111.577,436.546,111.571z"/>
								</g>
							</g>
						</g>
					</g>
				</g>
			</g>
		</g>
		<g>
			<g>
				<g>
					<g>
						<g>
							<g>
								<g>
									<path style="fill:#E0E0E0;" d="M444.628,95.802c-0.008-0.008-0.015-0.109-0.023-0.3c-0.006-0.226-0.014-0.501-0.024-0.836
										c-0.013-0.776-0.031-1.831-0.054-3.162c-0.028-2.765-0.068-6.67-0.118-11.471l0.218,0.218
										c-9.278,0.022-21.9,0.052-35.811,0.085c-0.273,0.271,0.367-0.37,0.301-0.302v0.004v0.008v0.016v0.033v0.065v0.13l0,0.259
										v0.517l0,1.031c0,0.685-0.001,1.367-0.001,2.045c-0.001,1.355-0.002,2.694-0.003,4.014
										c-0.004,2.638-0.007,5.195-0.011,7.646l-0.289-0.289c10.339,0.055,19.24,0.103,25.619,0.137
										c3.146,0.034,5.668,0.061,7.463,0.08c0.838,0.015,1.506,0.027,2.012,0.036C444.37,95.778,444.616,95.79,444.628,95.802
										c0.012,0.012-0.211,0.024-0.65,0.036c-0.492,0.009-1.139,0.021-1.953,0.036c-1.779,0.019-4.278,0.046-7.397,0.08
										c-6.428,0.034-15.397,0.082-25.814,0.137l-0.289,0.001l-0.001-0.291c-0.003-2.45-0.007-5.008-0.011-7.646
										c-0.001-1.319-0.002-2.658-0.003-4.014c0-0.678-0.001-1.36-0.001-2.045l0-1.031v-0.517V80.29v-0.13v-0.065v-0.033v-0.016
										v-0.008v-0.004c-0.066,0.064,0.576-0.577,0.306-0.305c13.911,0.033,26.533,0.063,35.811,0.085l0.221,0.001l-0.002,0.218
										c-0.049,4.857-0.089,8.807-0.117,11.604c-0.023,1.31-0.041,2.349-0.054,3.113
										C444.658,95.455,444.643,95.817,444.628,95.802z"/>
								</g>
							</g>
						</g>
					</g>
				</g>
			</g>
		</g>
	</g>
	<g>
		<g>
			<g>
				<g>
					<g>
						<g>
							<g>
								<g>
									<path style="fill:#E0E0E0;" d="M102.103,343.366c-0.006-0.006-0.012-0.103-0.018-0.286
										c-0.005-0.211-0.011-0.477-0.019-0.809c-0.011-0.742-0.026-1.777-0.045-3.103c-0.024-2.722-0.059-6.636-0.102-11.57
										l0.185,0.185c-13.61,0.027-35.254,0.07-59.603,0.119c0.134-0.135-0.306,0.303,0.3-0.303v0.004v0.008v0.016v0.032v0.064
										v0.127l0,0.254v0.507v1.011c0,0.673,0,1.343,0,2.012c-0.001,1.336-0.001,2.663-0.001,3.979
										c-0.002,2.632-0.003,5.22-0.005,7.756l-0.297-0.297c16.973,0.054,31.825,0.101,42.477,0.135
										c5.306,0.036,9.564,0.065,12.538,0.085c1.447,0.017,2.579,0.03,3.39,0.039c0.365,0.008,0.657,0.014,0.887,0.019
										C101.991,343.353,102.097,343.359,102.103,343.366c0.007,0.006-0.087,0.013-0.276,0.019c-0.22,0.005-0.5,0.011-0.85,0.019
										c-0.795,0.009-1.907,0.022-3.326,0.039c-2.958,0.02-7.192,0.049-12.469,0.085c-10.704,0.034-25.628,0.081-42.684,0.135
										l-0.297,0.001l0-0.298c-0.002-2.536-0.003-5.124-0.005-7.756c0-1.316-0.001-2.643-0.001-3.979c0-0.668,0-1.339,0-2.012
										l0-1.011v-0.507v-0.254v-0.127v-0.064v-0.032v-0.016v-0.008v-0.004c0.608-0.608,0.171-0.168,0.307-0.304
										c24.348,0.049,45.993,0.092,59.603,0.119l0.186,0l-0.002,0.184c-0.044,4.981-0.078,8.932-0.102,11.68
										c-0.019,1.309-0.034,2.33-0.045,3.062c-0.008,0.319-0.014,0.574-0.019,0.777
										C102.115,343.288,102.109,343.372,102.103,343.366z"/>
								</g>
							</g>
						</g>
					</g>
				</g>
			</g>
		</g>
		<g>
			<g>
				<g>
					<g>
						<g>
							<g>
								<g>
									<path style="fill:#E0E0E0;" d="M110.185,327.597c-0.008-0.008-0.015-0.109-0.023-0.3c-0.006-0.226-0.014-0.501-0.024-0.836
										c-0.013-0.776-0.031-1.831-0.054-3.162c-0.028-2.765-0.068-6.67-0.118-11.471l0.218,0.218
										c-9.278,0.022-21.9,0.052-35.811,0.085c-0.273,0.271,0.367-0.37,0.301-0.302v0.004v0.008v0.016v0.033v0.065v0.13l0,0.259
										v0.517l0,1.031c0,0.686-0.001,1.367-0.001,2.045c-0.001,1.355-0.002,2.694-0.003,4.013
										c-0.004,2.638-0.007,5.195-0.011,7.646l-0.289-0.289c10.339,0.055,19.24,0.103,25.619,0.137
										c3.146,0.034,5.668,0.061,7.463,0.08c0.838,0.015,1.506,0.027,2.012,0.036
										C109.927,327.574,110.173,327.585,110.185,327.597c0.012,0.012-0.211,0.024-0.65,0.036
										c-0.492,0.009-1.139,0.021-1.952,0.036c-1.779,0.019-4.278,0.046-7.397,0.08c-6.428,0.034-15.397,0.082-25.814,0.137
										l-0.289,0.001l0-0.291c-0.003-2.45-0.007-5.008-0.011-7.646c-0.001-1.319-0.002-2.658-0.003-4.013
										c0-0.678,0-1.36-0.001-2.045l0-1.031v-0.517v-0.259v-0.13v-0.065v-0.033v-0.016v-0.008v-0.004
										c-0.067,0.064,0.576-0.577,0.306-0.305c13.911,0.033,26.533,0.063,35.811,0.085l0.221,0.001l-0.002,0.218
										c-0.049,4.857-0.089,8.807-0.118,11.604c-0.023,1.31-0.041,2.349-0.054,3.113
										C110.215,327.25,110.2,327.612,110.185,327.597z"/>
								</g>
							</g>
						</g>
					</g>
				</g>
			</g>
		</g>
	</g>
	<g>
		<g>
			<g>
				<g>
					<g>
						<g>
							<g>
								<rect x="405.663" y="225.28" style="fill:#EBEBEB;" width="59.606" height="15.769"/>
							</g>
						</g>
					</g>
				</g>
			</g>
		</g>
		<g>
			<g>
				<g>
					<g>
						<g>
							<g>
								<g>
									<path style="fill:#E0E0E0;" d="M440.065,257.658c-0.006-0.006-0.012-0.103-0.018-0.286
										c-0.005-0.211-0.011-0.477-0.019-0.809c-0.011-0.742-0.026-1.777-0.045-3.103c-0.024-2.722-0.059-6.636-0.102-11.57
										l0.185,0.185c-13.61,0.027-35.254,0.07-59.603,0.119c0.134-0.135-0.306,0.303,0.3-0.303v0.004v0.008v0.016v0.032v0.063
										v0.127v0.254l0,0.507v1.011c0,0.673,0,1.343,0,2.012c0,1.337-0.001,2.663-0.001,3.979c-0.002,2.632-0.003,5.22-0.005,7.756
										l-0.297-0.297c16.973,0.054,31.825,0.101,42.477,0.135c5.306,0.036,9.564,0.065,12.538,0.085
										c1.447,0.017,2.579,0.03,3.39,0.039c0.365,0.008,0.657,0.014,0.887,0.019C439.952,257.645,440.058,257.651,440.065,257.658
										c0.006,0.006-0.087,0.013-0.276,0.019c-0.22,0.005-0.5,0.011-0.85,0.019c-0.795,0.009-1.907,0.022-3.326,0.039
										c-2.958,0.02-7.192,0.049-12.469,0.085c-10.704,0.034-25.628,0.081-42.684,0.135l-0.297,0.001l0-0.298
										c-0.002-2.536-0.003-5.124-0.005-7.756c0-1.316-0.001-2.643-0.001-3.979c0-0.668,0-1.339,0-2.012V242.9v-0.507v-0.254
										v-0.127v-0.063v-0.032v-0.016v-0.008v-0.004c0.608-0.608,0.171-0.169,0.307-0.304c24.348,0.049,45.993,0.092,59.603,0.119
										l0.186,0l-0.002,0.184c-0.044,4.981-0.078,8.932-0.102,11.68c-0.019,1.309-0.034,2.33-0.045,3.062
										c-0.008,0.319-0.014,0.574-0.019,0.776C440.077,257.58,440.071,257.664,440.065,257.658z"/>
								</g>
							</g>
						</g>
					</g>
				</g>
			</g>
		</g>
	</g>
</g>
<g id="Background_Simple" style="display:none;">
	<g style="display:inline;">
		<path style="fill:#F5F5F5;" d="M397.743,119.354l-1.991-3.28c-16.781-27.653-47.121-44.323-79.108-42.3
			c-4.112,0.26-8.206,0.817-12.246,1.681c-29.084,6.226-54.39,28.219-64.879,56.386c-6.169,16.566-7.893,35.639-19.599,48.788
			c-15.236,17.113-41.102,17.65-63.844,16.941c-22.742-0.709-48.626-0.104-63.787,17.076c-9.495,10.76-12.513,26.061-11.748,40.47
			c2.027,38.149,28.61,72.261,62.418,89.216c33.807,16.955,73.611,18.474,110.611,11.015
			c51.832-10.449,101.124-39.143,130.753-83.461C413.95,227.567,421.449,167.188,397.743,119.354z"/>
	</g>
	<g style="display:inline;">
		<circle style="fill:#F5F5F5;" cx="399.405" cy="407.919" r="27.832"/>
	</g>
</g>
<g id="Desk">
	<g>
		<g>
			<path style="fill:#263238;" d="M465.852,478.984c0,0.144-96.648,0.26-215.841,0.26c-119.235,0-215.862-0.117-215.862-0.26
				s96.627-0.26,215.862-0.26C369.204,478.724,465.852,478.841,465.852,478.984z"/>
		</g>
	</g>
</g>
<g id="Speech_Bubble">
	<g>
		<g>
			<g>
				<g>
					<g>
						<g>
							<g>
								<g>
									<path style="fill:#FFFFFF;" d="M183.121,130.911l-5.322-10.84c2.392-6.517,3.069-13.754,1.586-21.056
										c-4.265-21-24.746-34.565-45.745-30.3c-21,4.265-34.565,24.746-30.3,45.745c4.265,20.999,24.746,34.565,45.745,30.3
										c8.768-1.781,16.233-6.396,21.652-12.688l-0.01,0.02L183.121,130.911z"/>
								</g>
							</g>
						</g>
						<g>
							<g>
								<g>
									<g>
										<path style="fill:#263238;" d="M183.121,130.911c0,0-0.249,0.037-0.771,0.095c-0.552,0.06-1.332,0.144-2.347,0.254
											c-2.125,0.222-5.23,0.545-9.262,0.965c-0.074,0.008-0.14-0.046-0.148-0.12c-0.003-0.025,0.003-0.052,0.014-0.074
											l0.009-0.019l0.224,0.147c-3.241,3.789-8.314,8.236-15.597,11.033c-1.809,0.701-3.749,1.28-5.794,1.716
											c-2.061,0.335-4.193,0.763-6.431,0.79c-4.454,0.207-9.243-0.346-13.978-1.92c-4.73-1.564-9.396-4.146-13.483-7.74
											c-4.086-3.583-7.581-8.184-9.953-13.513c-2.406-5.313-3.535-11.378-3.278-17.514c0.267-6.132,1.96-12.387,5.245-17.894
											l1.242-2.065l1.419-1.935l0.707-0.964l0.789-0.893l1.582-1.773c0.547-0.57,1.149-1.081,1.719-1.622
											c0.588-0.521,1.125-1.099,1.771-1.544c1.254-0.933,2.448-1.939,3.804-2.693c5.243-3.283,11.124-5.22,16.952-5.811
											c5.84-0.551,11.596,0.248,16.742,2.075c5.155,1.822,9.701,4.653,13.387,8.032c3.697,3.379,6.529,7.298,8.528,11.298
											c1.053,1.983,1.744,4.045,2.438,6.02c0.503,2.033,1.077,3.976,1.313,5.909c1.1,7.729-0.301,14.322-2.038,18.965
											l-0.005-0.104c1.699,3.542,3.009,6.273,3.907,8.143c0.425,0.895,0.752,1.583,0.983,2.07
											C183.025,130.686,183.121,130.911,183.121,130.911s-0.137-0.248-0.376-0.717c-0.248-0.489-0.598-1.179-1.053-2.077
											c-0.921-1.834-2.267-4.513-4.013-7.987c-0.017-0.033-0.017-0.073-0.006-0.105c1.676-4.631,3.01-11.173,1.878-18.813
											c-0.244-1.91-0.823-3.83-1.329-5.837c-0.696-1.949-1.388-3.984-2.437-5.938c-1.992-3.942-4.802-7.799-8.459-11.12
											c-3.647-3.321-8.136-6.099-13.22-7.882c-5.074-1.789-10.742-2.564-16.491-2.013c-5.739,0.591-11.524,2.505-16.679,5.738
											c-1.333,0.742-2.507,1.734-3.741,2.652c-0.635,0.438-1.163,1.008-1.741,1.521c-0.56,0.533-1.154,1.035-1.691,1.596
											l-1.556,1.745l-0.777,0.879l-0.695,0.949l-1.396,1.904l-1.221,2.032c-3.232,5.417-4.898,11.57-5.166,17.602
											c-0.257,6.035,0.846,12.01,3.207,17.242c2.327,5.249,5.759,9.786,9.777,13.325c4.018,3.55,8.611,6.109,13.272,7.666
											c4.665,1.568,9.389,2.131,13.788,1.946c2.211-0.016,4.32-0.431,6.359-0.75c2.024-0.421,3.945-0.984,5.738-1.667
											c7.22-2.725,12.281-7.09,15.541-10.819c0.048-0.057,0.134-0.064,0.191-0.015c0.048,0.041,0.059,0.109,0.033,0.163
											l-0.01,0.019l-0.134-0.193c3.998-0.344,7.077-0.609,9.184-0.791c1.034-0.085,1.829-0.151,2.39-0.197
											C182.829,130.925,183.121,130.911,183.121,130.911z"/>
									</g>
								</g>
							</g>
						</g>
					</g>
				</g>
			</g>
		</g>
		<g>
			<g>
				<g>
					<g>
						<g>
							<g>
								<g>
									<g>
										<polygon style="fill:#FF725E;" points="123.415,109.278 128.436,104.256 138.121,112.864 157.132,94.571 161.794,99.593 
											137.404,122.549 										"/>
									</g>
								</g>
							</g>
						</g>
					</g>
				</g>
			</g>
		</g>
	</g>
</g>
<g id="Character">
	<g>
		<g>
			<path style="fill:#B56760;" d="M179.438,401.596c0.579,0.228,6.22,5.183,8.915,8.915c2.695,3.732,10.851,12.717,9.814,14.79
				c-1.037,2.073-5.02,2.957-8.13,0.469c-3.11-2.488-10.23-7.887-10.23-7.887l-11.147,23.405l-2.176-1.805l-8.357-19.565
				l-5.895-9.396l16.813-16.865C167.28,392.867,174.376,399.596,179.438,401.596z"/>
		</g>
		<g>
			<path style="fill:#263238;" d="M328.898,437.275l-13.996-50.439l-131.268,8.313c0,0-18.97,38.777-19.024,42.276
				c-0.038,2.436,4.473,18.372,9.137,41.559h76.716l-0.612-12.427l4.285,0.93c0,0,0.847,4.261,2.328,11.497l76.402-0.58
				L328.898,437.275z"/>
		</g>
		<g>
			<path style="fill:#455A64;" d="M319.975,392.397c0,0-0.218-14.124-0.218-34.28c0-20.156,1.385-77.959,1.385-77.959l15.727-77.443
				l-31.079-16.62l-93.238-7.78l-15.727,5.658c0,0-31.828,12.377-35.573,21.217c-3.745,8.84,17.786,81.333,17.786,81.333
				s-1.983,44.637-2.924,56.275c-2.026,25.068,0.724,44.039,0.724,44.039l-2.75,10.723c0,0,39.303,21.11,85.861,20.022
				c44.766-1.046,61.331-16.05,61.331-16.05L319.975,392.397z"/>
		</g>
		<g>
			<path style="fill:#455A64;" d="M122.095,318.426c-0.374-1.061-0.957-18.855,3.537-30.17
				c4.494-11.316,35.621-83.065,35.621-83.065l29.956,55.872l-12.17,25.461l-12.544,29.704l-1.885,63.86l6.105,15.767l-22.117,18.22
				l-9.063-26.062c0,0-5.617-1.768-8.238-10.609C128.675,368.562,122.095,318.426,122.095,318.426z"/>
		</g>
		<g>
			<g>
				<path style="fill:#263238;" d="M206.128,326.054c0.035,0.01-0.11,0.617-0.401,1.708c-0.282,1.094-0.763,2.658-1.423,4.567
					c-1.314,3.82-3.49,8.991-6.564,14.347c-3.087,5.352-6.464,9.832-9.106,12.887c-1.319,1.531-2.429,2.732-3.233,3.526
					c-0.797,0.8-1.249,1.23-1.275,1.205c-0.026-0.025,0.377-0.503,1.127-1.344c0.757-0.834,1.821-2.07,3.099-3.624
					c2.559-3.104,5.868-7.59,8.937-12.911c3.056-5.325,5.272-10.439,6.669-14.212c0.702-1.886,1.235-3.427,1.576-4.501
					C205.883,326.633,206.093,326.044,206.128,326.054z"/>
			</g>
		</g>
		<g>
			<g>
				<path style="fill:#263238;" d="M285.944,326.07c0,0.144-16.599,0.26-37.069,0.26c-20.478,0-37.072-0.117-37.072-0.26
					c0-0.144,16.595-0.26,37.072-0.26C269.346,325.81,285.944,325.927,285.944,326.07z"/>
			</g>
		</g>
		<g>
			<g>
				<path style="fill:#263238;" d="M312.153,359.775c-0.024,0.027-0.403-0.274-1.071-0.843c-0.674-0.561-1.599-1.434-2.689-2.563
					c-1.097-1.124-2.318-2.544-3.585-4.19c-1.247-1.661-2.528-3.558-3.715-5.642c-1.172-2.094-2.136-4.17-2.915-6.096
					c-0.756-1.935-1.342-3.715-1.738-5.234c-0.404-1.517-0.674-2.759-0.807-3.626c-0.143-0.866-0.205-1.346-0.169-1.352
					c0.035-0.006,0.165,0.462,0.368,1.311c0.193,0.851,0.516,2.073,0.963,3.566c0.439,1.495,1.055,3.247,1.829,5.155
					c0.796,1.898,1.763,3.947,2.924,6.02c1.176,2.064,2.432,3.949,3.646,5.611c1.234,1.647,2.416,3.079,3.47,4.227
					c1.048,1.153,1.928,2.061,2.557,2.665C311.842,359.395,312.176,359.748,312.153,359.775z"/>
			</g>
		</g>
		<g>
			<g>
				<path style="fill:#263238;" d="M297.484,392.397c-0.059-0.085,1.301-0.961,3.175-2.739c0.944-0.881,1.975-2.026,3.019-3.373
					c1.018-1.366,2.035-2.945,2.918-4.703c0.862-1.769,1.501-3.535,1.969-5.174c0.437-1.647,0.722-3.161,0.85-4.446
					c0.277-2.569,0.148-4.181,0.252-4.186c0.036-0.003,0.084,0.397,0.139,1.126c0.034,0.364,0.06,0.811,0.043,1.33
					c-0.011,0.519,0.007,1.113-0.067,1.764c-0.083,1.307-0.334,2.853-0.753,4.536c-0.45,1.674-1.087,3.479-1.966,5.281
					c-0.899,1.79-1.948,3.392-3.005,4.765c-1.083,1.354-2.159,2.491-3.149,3.35c-0.472,0.454-0.955,0.8-1.361,1.124
					c-0.403,0.328-0.774,0.579-1.084,0.773C297.851,392.223,297.504,392.427,297.484,392.397z"/>
			</g>
		</g>
		<g>
			<g>
				<path style="fill:#263238;" d="M319.975,392.397c0.005,0.008-0.101,0.082-0.314,0.221c-0.236,0.15-0.55,0.351-0.95,0.606
					c-0.429,0.268-0.947,0.592-1.555,0.972c-0.611,0.391-1.325,0.826-2.164,1.255c-3.267,1.87-8.225,4.207-14.626,6.316
					c-1.585,0.577-3.306,0.984-5.07,1.503c-1.773,0.488-3.648,0.877-5.577,1.326c-3.891,0.739-8.067,1.477-12.508,1.851
					c-4.433,0.425-9.109,0.667-13.956,0.625c-4.846-0.008-9.864-0.241-14.978-0.734c-20.499-1.921-38.561-6.945-51.264-11.324
					c-6.365-2.193-11.412-4.25-14.865-5.744c-1.731-0.737-3.056-1.354-3.953-1.774c-0.429-0.203-0.766-0.363-1.018-0.483
					c-0.228-0.111-0.343-0.172-0.339-0.181c0.004-0.008,0.126,0.037,0.361,0.132c0.258,0.108,0.602,0.252,1.039,0.435
					c0.91,0.389,2.247,0.976,3.989,1.683c3.474,1.436,8.535,3.438,14.905,5.582c12.714,4.283,30.751,9.238,51.193,11.154
					c5.1,0.492,10.102,0.728,14.932,0.742c4.831,0.048,9.49-0.182,13.908-0.593c4.426-0.36,8.588-1.079,12.467-1.797
					c1.923-0.439,3.793-0.816,5.562-1.292c1.759-0.508,3.477-0.902,5.059-1.465c6.39-2.057,11.353-4.333,14.642-6.144
					c0.844-0.415,1.565-0.834,2.182-1.211c0.617-0.363,1.143-0.672,1.578-0.928c0.411-0.237,0.734-0.423,0.976-0.562
					C319.854,392.45,319.97,392.39,319.975,392.397z"/>
			</g>
		</g>
		<g>
			<path style="fill:#455A64;" d="M353.592,224.585c-3.101-12.813-16.722-21.87-16.722-21.87l-17.779,78.98l15.506,39.024
				l-6.19,62.453l-3.55,7.766l21.591,15.8l19.381-26.651c0,0,13.399-46.553,13.399-60.831S356.693,237.398,353.592,224.585z"/>
		</g>
		<g>
			<path style="fill:#455A64;" d="M200.086,182.8c0,0-3.51,0.514-3.27-7.853c0.239-8.367,4.31-16.734,4.31-16.734l16.523-8.141
				c0,0,51.005-6.332,69.204,7.01c18.199,13.342,22.728,13.453,20.833,21.233c-1.895,7.78-1.895,7.78-1.895,7.78l-47.673,19.095
				L200.086,182.8z"/>
		</g>
		<g>
			<g>
				<path style="fill:#263238;" d="M293.732,170.238c0.008,0.003-0.018,0.077-0.075,0.222c-0.072,0.17-0.16,0.38-0.269,0.639
					c-0.163,0.256-0.356,0.583-0.611,0.95c-0.291,0.337-0.583,0.77-1.004,1.171c-1.596,1.694-4.306,3.738-7.893,5.889
					c-7.175,4.32-17.771,9.237-30.045,13.962l-0.118,0.046l-0.11-0.069c-1.808-1.137-3.715-2.336-5.651-3.553
					c-12.412-7.845-23.646-14.945-31.817-20.11c-4.032-2.578-7.307-4.672-9.61-6.145c-1.103-0.718-1.972-1.285-2.599-1.693
					c-0.273-0.184-0.493-0.333-0.669-0.451c-0.149-0.104-0.223-0.161-0.218-0.169c0.005-0.008,0.088,0.034,0.247,0.124
					c0.183,0.107,0.412,0.241,0.696,0.408c0.639,0.389,1.526,0.927,2.651,1.61c2.324,1.439,5.629,3.485,9.698,6.005
					c8.192,5.131,19.455,12.186,31.899,19.981c1.935,1.218,3.841,2.419,5.648,3.557l-0.228-0.023
					c12.251-4.698,22.86-9.553,30.049-13.775c3.596-2.102,6.316-4.089,7.935-5.723c0.427-0.387,0.725-0.803,1.025-1.127
					c0.263-0.352,0.465-0.665,0.64-0.91c0.125-0.247,0.226-0.448,0.308-0.61C293.683,170.304,293.724,170.235,293.732,170.238z"/>
			</g>
		</g>
		<g>
			<g>
				<g>
					<g>
						<path style="fill:#B56760;" d="M291.445,143.468c-0.155-9.272-2.027-28.338-3.922-45.576
							c-2.038-18.539-17.967-32.404-36.609-31.863l-1.852,0.053c-19.937,1.747-29.591,19.654-27.294,39.535l0.764,66.816
							l31.175,19.843l19.158-8.068l-0.212-17.996C272.654,166.212,291.766,162.669,291.445,143.468z"/>
					</g>
					<g>
						<g>
							<g>
								<g>
									<g>
										<g>
											<g>
												<g>
													<g>
														<g>
															<path style="fill:#8A4A43;" d="M272.676,166.199c0,0-12.102,1.339-25.231-6.385c0,0,6.316,13.642,25.42,11.357
																L272.676,166.199z"/>
														</g>
													</g>
												</g>
											</g>
										</g>
									</g>
								</g>
							</g>
						</g>
					</g>
					<g>
						<g>
							<g>
								<g>
									<g>
										<g>
											<g>
												<g>
													<g>
														<g>
															<g>
																<g>
																	<g>
																		<path style="fill:#263238;" d="M280.849,116.446c0.094,1.446-1.054,2.717-2.563,2.842
																			c-1.506,0.125-2.804-0.943-2.897-2.389c-0.093-1.446,1.054-2.719,2.56-2.844
																			C279.456,113.929,280.755,114.999,280.849,116.446z"/>
																	</g>
																</g>
															</g>
														</g>
													</g>
												</g>
											</g>
										</g>
									</g>
								</g>
							</g>
						</g>
					</g>
					<g>
						<g>
							<g>
								<g>
									<g>
										<g>
											<g>
												<g>
													<g>
														<g>
															<g>
																<g>
																	<g>
																		<g>
																			<path style="fill:#263238;" d="M283.926,106.379c-0.329,0.367-2.45-1.11-5.4-1.016
																				c-2.948,0.051-5.068,1.632-5.399,1.28c-0.162-0.156,0.166-0.811,1.088-1.524c0.908-0.71,2.472-1.421,4.309-1.466
																				c1.838-0.043,3.403,0.588,4.312,1.255C283.763,105.576,284.09,106.213,283.926,106.379z"/>
																		</g>
																	</g>
																</g>
															</g>
														</g>
													</g>
												</g>
											</g>
										</g>
									</g>
								</g>
							</g>
						</g>
					</g>
					<g>
						<g>
							<g>
								<g>
									<g>
										<g>
											<g>
												<g>
													<g>
														<g>
															<g>
																<g>
																	<g>
																		<path style="fill:#263238;" d="M253.702,116.446c0.093,1.446-1.055,2.717-2.563,2.842
																			c-1.505,0.125-2.804-0.943-2.897-2.389c-0.093-1.446,1.055-2.718,2.56-2.844
																			C252.31,113.929,253.609,114.999,253.702,116.446z"/>
																	</g>
																</g>
															</g>
														</g>
													</g>
												</g>
											</g>
										</g>
									</g>
								</g>
							</g>
						</g>
					</g>
					<g>
						<g>
							<g>
								<g>
									<g>
										<g>
											<g>
												<g>
													<g>
														<g>
															<g>
																<g>
																	<g>
																		<g>
																			<path style="fill:#263238;" d="M254.509,106.402c-0.288,0.401-2.56-0.837-5.48-0.424
																				c-2.924,0.37-4.862,2.171-5.228,1.857c-0.177-0.137,0.074-0.823,0.917-1.633
																				c0.826-0.805,2.303-1.681,4.125-1.926c1.822-0.241,3.446,0.216,4.423,0.78
																				C254.257,105.622,254.652,106.22,254.509,106.402z"/>
																		</g>
																	</g>
																</g>
															</g>
														</g>
													</g>
												</g>
											</g>
										</g>
									</g>
								</g>
							</g>
						</g>
					</g>
					<g>
						<g>
							<g>
								<g>
									<g>
										<g>
											<g>
												<g>
													<g>
														<g>
															<g>
																<g>
																	<g>
																		<path style="fill:#263238;" d="M266.031,130.352c-0.018-0.167,1.806-0.538,4.766-1.004
																			c0.751-0.1,1.46-0.27,1.572-0.788c0.162-0.549-0.177-1.353-0.568-2.218c-0.761-1.802-1.558-3.691-2.394-5.671
																			c-3.331-8.076-5.765-14.726-5.439-14.857c0.327-0.131,3.292,6.308,6.622,14.385
																			c0.803,1.992,1.571,3.891,2.301,5.708c0.31,0.848,0.829,1.805,0.477,2.945c-0.187,0.568-0.727,0.993-1.207,1.137
																			c-0.478,0.161-0.902,0.182-1.274,0.215C267.901,130.452,266.047,130.519,266.031,130.352z"/>
																	</g>
																</g>
															</g>
														</g>
													</g>
												</g>
											</g>
										</g>
									</g>
								</g>
							</g>
						</g>
					</g>
					<g>
						<g>
							<g>
								<g>
									<g>
										<g>
											<g>
												<g>
													<g>
														<path style="fill:#263238;" d="M254.545,93.664c-0.268,0.811-3.224,0.516-6.672,1.033
															c-3.459,0.449-6.22,1.543-6.701,0.837c-0.214-0.339,0.25-1.107,1.356-1.917c1.095-0.807,2.859-1.596,4.93-1.888
															c2.071-0.287,3.983-0.013,5.258,0.463C254.001,92.668,254.659,93.28,254.545,93.664z"/>
													</g>
												</g>
											</g>
										</g>
									</g>
								</g>
							</g>
						</g>
					</g>
					<g>
						<g>
							<g>
								<g>
									<g>
										<g>
											<g>
												<g>
													<g>
														<path style="fill:#263238;" d="M283.114,94.984c-0.499,0.685-2.552,0.049-4.996,0.087
															c-2.446-0.047-4.499,0.581-4.996-0.106c-0.219-0.334,0.087-1.015,0.973-1.675c0.873-0.658,2.348-1.218,4.029-1.216
															c1.68,0.005,3.153,0.57,4.023,1.231C283.03,93.969,283.334,94.651,283.114,94.984z"/>
													</g>
												</g>
											</g>
										</g>
									</g>
								</g>
							</g>
						</g>
					</g>
					<g>
						<g>
							<g>
								<g>
									<g>
										<g>
											<g>
												<g>
													<g>
														<g>
															<g>
																<g>
																	<g>
																		<g>
																			<g>
																				<g>
																					<g>
																						<g>
																							<g>
																								<g>
																									<g>
																										<g>
																											<g>
																												<g>
																													<path style="fill:#B56760;" d="M223.749,119.785c-0.331-0.132-13.302-3.518-12.502,9.593
																														c0.8,13.111,13.798,9.603,13.798,9.225C225.045,138.227,223.749,119.785,223.749,119.785z"/>
																												</g>
																											</g>
																										</g>
																									</g>
																								</g>
																							</g>
																						</g>
																					</g>
																				</g>
																			</g>
																		</g>
																	</g>
																</g>
															</g>
														</g>
													</g>
												</g>
											</g>
										</g>
									</g>
								</g>
							</g>
						</g>
						<g>
							<g>
								<g>
									<g>
										<g>
											<g>
												<g>
													<g>
														<g>
															<g>
																<g>
																	<g>
																		<g>
																			<g>
																				<g>
																					<g>
																						<g>
																							<g>
																								<g>
																									<g>
																										<g>
																											<g>
																												<g>
																													<g>
																														<path style="fill:#8A4A43;" d="M220.737,133.881c-0.06-0.039-0.219,0.174-0.594,0.374
																															c-0.366,0.195-1.006,0.353-1.705,0.139c-1.416-0.424-2.717-2.552-2.925-4.911
																															c-0.106-1.191,0.075-2.342,0.44-3.309c0.342-0.984,0.921-1.691,1.611-1.858
																															c0.684-0.203,1.203,0.185,1.386,0.544c0.198,0.356,0.131,0.623,0.202,0.641
																															c0.039,0.031,0.268-0.237,0.129-0.772c-0.07-0.257-0.243-0.557-0.566-0.79
																															c-0.331-0.237-0.801-0.339-1.284-0.257c-1.007,0.131-1.86,1.117-2.262,2.178
																															c-0.457,1.069-0.688,2.365-0.569,3.702c0.245,2.637,1.748,5.027,3.677,5.458
																															c0.937,0.185,1.689-0.141,2.068-0.474C220.733,134.199,220.784,133.902,220.737,133.881z"/>
																													</g>
																												</g>
																											</g>
																										</g>
																									</g>
																								</g>
																							</g>
																						</g>
																					</g>
																				</g>
																			</g>
																		</g>
																	</g>
																</g>
															</g>
														</g>
													</g>
												</g>
											</g>
										</g>
									</g>
								</g>
							</g>
						</g>
					</g>
					<g>
						<path style="fill:#263238;" d="M289.003,75.431c-0.65-2.524-2.603-4.902-5.192-5.211c0.127-0.397-2.695-1.752-4.892-3.29
							c-2.197-1.538-2.661-5.191-4.649-3.392c0.045-4.007-4.964-7.089-8.52-5.242c0.075-2.324-3.344-3.1-5.595-3.685
							c-2.251-0.586-3.106-0.924-4.175,1.142c-2.88-4.629-10.582-5.032-13.929-0.728c-5.291-1.721-11.665,1.319-13.659,6.513
							c-4.28,0.351-8.176,3.576-9.319,7.716c-2.745,0.307-3.394,2.465-4.503,4.996c-1.108,2.53-2.634,5.336-0.999,7.563
							c-3.276,1.696-3.811,6.971-0.943,9.29c-0.734,0.387-1.368,0.946-1.867,1.608c-2.755,1.738-3.563,5.999-1.535,8.579
							c-1.989,1.594-2.787,4.516-1.885,6.901c0.902,2.384,3.434,4.046,5.98,3.926c-2.11,3.078,0.632,7.193,2.228,8.079
							c0,0,5.365-2.287,6.271,1.673c-0.055,0.067-0.028,0.034,0,0c-0.295,1.691,1.752,3.185,3.314,2.472
							c1.562-0.713,2.415-2.371,3.286-3.851c0.997-1.695,2.181-3.343,2.602-5.265c0.421-1.922-0.181-4.253-1.952-5.108
							c2.245-0.814,3.641-3.168,4.003-5.529c0.361-2.361-0.128-4.76-0.615-7.098c-0.718-3.451-1.437-6.902-2.155-10.352
							c4.754-0.254,9.238-3.388,11.111-7.764c3.473,2.526,9.131,0.966,10.819-2.983c1.656,4.659,7.416,7.382,12.068,5.703
							c-0.442,2.731,4.506,5.114,7.198,5.754c2.692,0.639,5.987-1.343,5.987-1.343s4.672,2.586,7.159,1.51
							c2.441-1.056,5.676-4.316,3.979-6.867C288.624,81.146,289.653,77.956,289.003,75.431z"/>
					</g>
					<g>
						<g>
							<g>
								<g>
									<g>
										<g>
											<g>
												<g>
													<g>
														<g>
															<path style="fill:#455A64;" d="M264.02,57.969c-0.056,0.067-0.436-0.511-1.504-0.81
																c-0.522-0.137-1.226-0.169-1.913,0.164c-0.678,0.319-1.349,1.015-1.54,1.943l-0.156,0.754l-0.413-0.661
																c-0.738-1.181-2.297-2.204-4.108-2.155c-1.77,0.019-3.714,1.394-4.239,3.42l-0.226,0.871l-0.57-0.7
																c-1.042-1.28-2.795-2.1-4.599-2.051c-1.801,0.014-3.588,1.096-4.579,2.74c-0.409,0.662-0.665,1.401-0.769,2.145
																l-0.074,0.534l-0.522-0.115c-2.553-0.56-5.282,0.948-6.175,3.106c-0.944,2.181-0.285,4.708,1.102,6.106l0.52,0.525
																l-0.719,0.148c-1.723,0.354-3.085,1.441-3.865,2.625c-0.8,1.192-1.019,2.485-0.997,3.51
																c0.073,2.096,0.903,3.114,0.779,3.161c-0.028,0.019-0.243-0.203-0.526-0.712c-0.275-0.507-0.614-1.319-0.706-2.426
																c-0.093-1.091,0.072-2.519,0.908-3.878c0.815-1.343,2.281-2.604,4.24-3.06l-0.198,0.672
																c-1.648-1.598-2.46-4.441-1.39-7.035c1.062-2.587,4.166-4.349,7.24-3.704l-0.596,0.419
																c0.12-0.89,0.425-1.761,0.902-2.535c1.146-1.913,3.263-3.188,5.401-3.195c2.116-0.038,4.118,0.923,5.331,2.448
																l-0.795,0.17c0.688-2.458,2.986-3.991,5.107-3.978c2.136,0.003,3.856,1.233,4.653,2.623l-0.569,0.093
																c0.292-1.151,1.13-1.919,1.951-2.252c0.841-0.346,1.647-0.243,2.208-0.039c0.573,0.206,0.938,0.513,1.148,0.736
																C263.972,57.806,264.039,57.954,264.02,57.969z"/>
														</g>
													</g>
												</g>
											</g>
										</g>
									</g>
								</g>
							</g>
						</g>
					</g>
				</g>
				<g>
					<g>
						<g>
							<g>
								<g>
									<g>
										<g>
											<g>
												<path style="fill:#263238;" d="M290.908,132.983c-2.007-1.467-5.326-0.37-6.063,2.005
													c-1.112-1.551-3.146-2.385-5.027-2.059c-1.881,0.325-3.517,1.793-4.043,3.628c-0.865-2.789-5.256-3.532-6.99-1.183
													c-0.714-1.171-2.236-1.782-3.562-1.429c0.155-1.279-0.537-2.62-1.669-3.235c-1.132-0.615-2.634-0.466-3.623,0.359
													c-1.465-2.654-5.561-3.334-7.806-1.296c-0.377-1.22-1.629-2.109-2.905-2.063c-1.276,0.047-2.46,1.025-2.747,2.269
													c-1.24-1.61-3.615-2.227-5.482-1.424c0.019-1.904-2.129-3.489-3.943-2.909c0.455-1.621-1.923-2.35-3.142-3.512
													c-0.545-0.52-0.893-1.23-1.48-1.701c-0.587-0.472-1.605-0.575-1.989,0.074c0.312-1.295-0.49-2.76-1.748-3.196
													c-1.258-0.436-2.795,0.219-3.351,1.428c-0.329,0.716-0.332,1.531-0.444,2.311c-0.363,2.517-1.775,5.506,0.051,7.276
													c0.322,0.312,0.74,0.57,0.877,0.997c0.233,0.729-0.481,1.425-0.533,2.188c-0.061,0.889,0.755,1.565,1.119,2.379
													c0.539,1.205,0.046,2.589-0.048,3.905c-0.094,1.316,0.654,2.985,1.967,2.853c-0.982,1.913-0.324,4.508,1.45,5.723
													c-1.019,2.222,0.307,5.194,2.641,5.921c-0.873,0.7-0.81,2.126-0.169,3.043c0.641,0.917,1.687,1.45,2.691,1.946
													c-0.912,0.474-1.028,1.837-0.461,2.694c0.567,0.857,1.584,1.296,2.573,1.573c0.425,0.119,0.894,0.243,1.145,0.606
													c0.47,0.682-0.16,1.608-0.031,2.426c0.197,1.252,1.96,1.611,2.489,2.764c0.471,1.026-0.143,2.464,0.68,3.237
													c0.533,0.501,1.377,0.408,2.067,0.65c1.23,0.432,1.777,1.817,2.56,2.859c1.476,1.966,3.981,2.825,6.365,3.427
													c1.214,0.307,2.438,0.574,3.669,0.803c2.455,0.456,4.936,0.754,7.415,1.053c1.23,0.148,2.745,0.168,3.391-0.889
													c1.721,2.107,5.63,1.645,6.813-0.805c2.216,0.592,4.523-0.342,6.626-1.258c0.727-0.317,1.453-0.633,2.18-0.95
													c2.167-0.944,4.579-2.157,5.216-4.433c2.838-0.404,4.705-3.964,3.423-6.528c0.988,0.282,1.945-0.716,2.102-1.731
													c0.157-1.015-0.204-2.029-0.388-3.04c-0.75-4.112,1.431-8.303,0.863-12.444c-0.398-2.899-2.125-5.766-1.296-8.573
													c0.171-0.577,0.45-1.146,0.408-1.747c-0.042-0.6-0.595-1.223-1.171-1.046c0.742-1.657-0.91-3.825-2.704-3.549"/>
											</g>
										</g>
									</g>
								</g>
							</g>
						</g>
					</g>
				</g>
				<g>
					<g>
						<g>
							<g>
								<g>
									<g>
										<g>
											<g>
												<g>
													<g>
														<g>
															<g>
																<g>
																	<path style="fill:#FFFFFF;" d="M256.279,133.305c0.479-0.042,0.578,3.16,3.385,5.353
																		c2.802,2.2,6.204,1.742,6.243,2.189c0.05,0.199-0.742,0.644-2.182,0.725c-1.412,0.089-3.488-0.305-5.206-1.646
																		c-1.712-1.345-2.485-3.184-2.632-4.494C255.726,134.096,256.059,133.293,256.279,133.305z"/>
																</g>
															</g>
														</g>
													</g>
												</g>
											</g>
										</g>
									</g>
								</g>
							</g>
						</g>
					</g>
				</g>
				<g>
					<g>
						<g>
							<g>
								<g>
									<g>
										<g>
											<g>
												<g>
													<path style="fill:#455A64;" d="M238.685,155.201c0.162-0.053-1.178-2.949-1.235-6.785
														c-0.106-3.836,1.111-6.785,0.946-6.832c-0.055-0.023-0.432,0.675-0.806,1.9c-0.375,1.22-0.697,2.982-0.658,4.943
														c0.044,1.96,0.44,3.707,0.866,4.91C238.224,154.544,238.631,155.227,238.685,155.201z"/>
												</g>
											</g>
										</g>
									</g>
								</g>
							</g>
						</g>
					</g>
				</g>
				<g>
					<g>
						<g>
							<g>
								<g>
									<g>
										<g>
											<g>
												<g>
													<path style="fill:#455A64;" d="M235.668,150.572c0.068-0.061-0.402-0.514-0.731-1.456
														c-0.342-0.935-0.46-2.331-0.319-3.873c0.236-3.101,1.093-5.509,0.945-5.559c-0.115-0.061-1.215,2.326-1.461,5.517
														c-0.146,1.582,0.035,3.08,0.496,4.052C235.049,150.238,235.642,150.616,235.668,150.572z"/>
												</g>
											</g>
										</g>
									</g>
								</g>
							</g>
						</g>
					</g>
				</g>
				<g>
					<g>
						<g>
							<g>
								<g>
									<g>
										<g>
											<g>
												<g>
													<path style="fill:#455A64;" d="M232.443,147.913c0.154-0.065-1.272-2.432-1.385-5.717
														c-0.165-3.284,1.058-5.762,0.898-5.814c-0.052-0.027-0.432,0.545-0.803,1.585c-0.372,1.035-0.682,2.558-0.613,4.251
														c0.074,1.692,0.51,3.183,0.969,4.183C231.967,147.406,232.393,147.944,232.443,147.913z"/>
												</g>
											</g>
										</g>
									</g>
								</g>
							</g>
						</g>
					</g>
				</g>
				<g>
					<g>
						<g>
							<g>
								<g>
									<g>
										<g>
											<g>
												<g>
													<path style="fill:#455A64;" d="M285.859,167.529c0.007,0.051,0.872-0.171,1.828-1.167
														c0.959-0.979,1.812-2.708,2.292-4.691c0.501-1.99,0.552-3.867,0.434-5.196c-0.117-1.334-0.357-2.129-0.419-2.117
														c-0.164,0.007,0.477,3.298-0.518,7.188c-0.469,1.936-1.228,3.59-2.063,4.574
														C286.587,167.115,285.815,167.449,285.859,167.529z"/>
												</g>
											</g>
										</g>
									</g>
								</g>
							</g>
						</g>
					</g>
				</g>
				<g>
					<g>
						<g>
							<g>
								<g>
									<g>
										<g>
											<g>
												<g>
													<path style="fill:#455A64;" d="M283.062,166.83c0.031,0.048,0.655-0.269,1.477-1.037
														c0.821-0.761,1.789-2.023,2.423-3.629c0.628-1.608,0.779-3.191,0.696-4.308c-0.079-1.122-0.321-1.779-0.375-1.765
														c-0.085,0.016,0.026,0.691,0.009,1.774c-0.012,1.081-0.213,2.576-0.812,4.11c-0.606,1.531-1.477,2.762-2.204,3.562
														C283.552,166.342,283.012,166.761,283.062,166.83z"/>
												</g>
											</g>
										</g>
									</g>
								</g>
							</g>
						</g>
					</g>
				</g>
			</g>
			<g>
				<g>
					<g>
						<g>
							<g>
								<g>
									<g>
										<g>
											<g>
												<g>
													<g>
														<path style="fill:#455A64;" d="M287.951,86.351c0,0-4.421-6.869-12.965-9.402c-15.87-4.706-38.16-6.501-61.682,16.692
															l-3.43,1.551c0,0-0.708-7.903,0.495-13.747c0.804-3.903,7.926-26.669,33.351-29.056
															C243.72,52.388,282.588,46.055,287.951,86.351z"/>
													</g>
												</g>
											</g>
										</g>
									</g>
								</g>
							</g>
						</g>
					</g>
					<g style="opacity:0.3;">
						<g>
							<g>
								<g>
									<g>
										<g>
											<g>
												<g>
													<path d="M287.951,86.351c0,0-4.421-6.869-12.965-9.402c-15.87-4.706-38.16-6.501-61.682,16.692l-3.43,1.551
														c0,0-0.708-7.903,0.495-13.747c0.804-3.903,7.926-26.669,33.351-29.056C243.72,52.388,282.588,46.055,287.951,86.351z"
														/>
												</g>
											</g>
										</g>
									</g>
								</g>
							</g>
						</g>
					</g>
				</g>
				<g>
					<g>
						<g>
							<g>
								<g>
									<g>
										<g>
											<path style="fill:#455A64;" d="M213.304,93.641c9.653-10.579,22.087-16.658,35.15-21.506
												c13.064-4.847,33.678-8.058,47.59-8.843c4.177-0.236,8.495-0.304,12.389,1.225c3.894,1.53,7.292,5.031,7.476,9.21
												c0.23,5.231-10.176,11.088-14.945,13.251c-4.769,2.163-14.504,5.961-14.504,5.961s-2.606-11.885-11.996-15.255
												C254.964,70.685,212.586,94.03,213.304,93.641z"/>
										</g>
									</g>
								</g>
							</g>
						</g>
					</g>
				</g>
			</g>
			<g>
				<path style="fill:#263238;" d="M289.133,78.648c-1.145-3.173-4.734-5.256-8.057-4.676c0.793-0.934,0.661-2.42-0.066-3.407
					c-0.727-0.987-1.916-1.538-3.112-1.808c-4.198-0.95-8.903,1.501-10.531,5.485c-1.961-1.93-4.826-3.056-8.515-2.325
					c-3.661,0.726-5.839,3.859-5.839,6.089c0.013,2.503,1.272,3.956,3.429,5.226c2.157,1.27,5.532,0.365,7.726-0.838
					c0.874,2.388,2.963,4.295,5.42,4.949c2.457,0.654,5.218,0.038,7.164-1.599c2.158,2.592,6.242,3.328,9.169,1.651
					C288.848,85.716,290.279,81.821,289.133,78.648z"/>
			</g>
		</g>
		<g>
			<g>
				<path style="fill:#263238;" d="M299.491,188.618c0.003,0.008-0.071,0.046-0.22,0.112c-0.177,0.075-0.395,0.168-0.664,0.283
					c-0.625,0.253-1.486,0.602-2.577,1.044c-2.288,0.902-5.538,2.185-9.557,3.77c-8.145,3.162-19.394,7.529-31.986,12.417
					l-0.077,0.03l-0.071-0.019c-1.185-0.31-2.468-0.584-3.732-0.964c-6.949-2.044-13.195-4.994-18.783-7.773
					c-5.579-2.814-10.5-5.536-14.659-7.766c-4.156-2.235-7.536-4.012-9.91-5.163c-1.175-0.601-2.114-1.01-2.736-1.321
					c-0.289-0.143-0.522-0.258-0.709-0.35c-0.159-0.082-0.238-0.127-0.235-0.136c0.004-0.008,0.09,0.021,0.256,0.087
					c0.192,0.08,0.433,0.18,0.731,0.303c0.636,0.281,1.591,0.66,2.78,1.234c2.404,1.096,5.815,2.826,9.995,5.02
					c4.183,2.189,9.121,4.877,14.701,7.662c5.588,2.75,11.82,5.676,18.713,7.702c1.254,0.377,2.523,0.648,3.698,0.957l-0.149,0.011
					c12.615-4.828,23.885-9.141,32.045-12.264c4.043-1.522,7.313-2.753,9.615-3.62c1.106-0.405,1.978-0.724,2.611-0.956
					c0.277-0.096,0.501-0.174,0.682-0.236C299.407,188.632,299.488,188.61,299.491,188.618z"/>
			</g>
		</g>
		<g>
			<g>
				<path style="fill:#263238;" d="M178.481,295.793c-0.018-0.002-0.017-0.245,0.001-0.704c0.027-0.51,0.061-1.176,0.104-2.004
					c0.084-0.867,0.031-1.936,0.036-3.172c0.022-1.237-0.055-2.644-0.145-4.199c-0.15-3.111-0.553-6.803-1.053-10.892
					c-0.563-4.083-1.223-8.567-2.052-13.253c-1.623-9.381-3.307-17.839-4.352-23.996c-0.523-3.078-0.887-5.58-1.101-7.314
					c-0.079-0.828-0.142-1.493-0.191-2.003c-0.038-0.458-0.049-0.7-0.031-0.701c0.018-0.002,0.064,0.236,0.136,0.69
					c0.073,0.506,0.169,1.166,0.288,1.987c0.275,1.722,0.693,4.21,1.262,7.277c1.136,6.134,2.878,14.58,4.503,23.972
					c0.829,4.691,1.477,9.186,2.015,13.281c0.475,4.103,0.841,7.809,0.945,10.935c0.066,1.562,0.118,2.975,0.068,4.218
					c-0.033,1.242-0.01,2.313-0.125,3.183c-0.084,0.828-0.151,1.493-0.202,2.004C178.535,295.557,178.499,295.796,178.481,295.793z"
					/>
			</g>
		</g>
		<g>
			<g>
				<path style="fill:#263238;" d="M327.116,221.99c0.009,0.001,0.006,0.086-0.007,0.249c-0.019,0.194-0.043,0.432-0.072,0.725
					c-0.079,0.678-0.189,1.606-0.326,2.781c-0.294,2.458-0.71,5.94-1.221,10.223c-1.005,8.634-2.258,20.578-3.296,33.799
					c-1.032,13.226-1.653,25.221-2.004,33.906c-0.161,4.31-0.292,7.814-0.384,10.288c-0.047,1.181-0.083,2.115-0.11,2.797
					c-0.017,0.294-0.031,0.533-0.042,0.727c-0.012,0.164-0.023,0.248-0.032,0.247c-0.009,0-0.016-0.084-0.021-0.249
					c-0.003-0.195-0.006-0.434-0.01-0.728c0.003-0.682,0.007-1.617,0.013-2.8c0.017-2.432,0.089-5.95,0.219-10.296
					c0.257-8.693,0.82-20.699,1.853-33.934c1.039-13.23,2.35-25.176,3.449-33.803c0.548-4.314,1.024-7.8,1.386-10.205
					c0.179-1.169,0.32-2.094,0.423-2.768c0.05-0.29,0.09-0.526,0.123-0.718C327.087,222.071,327.107,221.989,327.116,221.99z"/>
			</g>
		</g>
		<g>
			<g style="opacity:0.3;">
				<g>
					<path d="M190.47,304.463c7.711,5.104,15.456,10.227,23.823,14.165c8.367,3.938,17.44,6.678,26.687,6.732
						c10.861,0.064,21.661-5.357,30.097-12.197c8.376-6.791,13.005-10.587,20.372-21.153c4.78-6.855,9.301-15.53,9.474-23.886
						c0.148-7.169-1.944-14.174-4.017-21.039c0,0-0.364-5.2-1.443-16.725c-1.08-11.525-0.278-33.982-0.278-33.982l-9.24,27.297
						l-12.767,57.144l-30.807,28.015l-33.734-1.438L190.47,304.463z"/>
				</g>
			</g>
			<g>
				<path style="fill:#FF725E;" d="M178.796,284.279c0,0,9.528,6.148,16.439,3.239c6.911-2.91,64.742-49.829,65.469-51.284
					c0.728-1.455,12.73-16.004,17.458-24.733s6.456-16.857,6.456-16.857l11.236-4.494l-3.858,35.9v15.64
					c0,0,12.354,33.098-10.56,53.103c-22.914,20.004-33.826,29.825-51.284,26.551c-17.458-3.273-51.715-21.677-51.715-21.677
					L178.796,284.279z"/>
			</g>
			<g>
				<g>
					<path style="fill:#263238;" d="M293.732,269.861c-0.034,0.008-0.125-0.507-0.468-1.436c-0.336-0.93-0.915-2.273-1.809-3.927
						c-1.795-3.297-4.79-7.892-9.254-12.923c-2.246-2.485-4.835-5.164-8.118-7.326c-0.83-0.516-1.704-1.002-2.647-1.327
						c-0.94-0.331-1.965-0.449-2.895-0.054c-1.907,0.787-3.732,2.003-5.577,3.225c-7.329,5.037-14.922,11.248-22.777,17.867
						c-7.834,6.656-15.134,13.194-21.525,19.392c-3.179,3.111-6.178,6.109-8.683,9.157c-1.191,1.537-2.528,3.06-2.393,4.9
						c0.054,1.795,0.744,3.456,1.465,4.949c1.511,2.989,3.367,5.429,5.023,7.517c1.673,2.084,3.216,3.796,4.496,5.175
						c1.282,1.379,2.31,2.419,3.008,3.124c0.335,0.337,0.598,0.601,0.796,0.8c0.179,0.181,0.268,0.276,0.262,0.282
						c-0.006,0.007-0.108-0.075-0.299-0.244c-0.206-0.189-0.482-0.442-0.833-0.763c-0.722-0.681-1.774-1.7-3.082-3.059
						c-1.305-1.361-2.874-3.057-4.575-5.131c-1.685-2.081-3.571-4.512-5.126-7.536c-0.741-1.516-1.465-3.199-1.537-5.106
						c0.001-0.473,0.025-0.958,0.154-1.434c0.033-0.246,0.153-0.465,0.25-0.692c0.098-0.228,0.198-0.458,0.337-0.655
						c0.498-0.84,1.094-1.621,1.718-2.397c2.516-3.089,5.506-6.101,8.684-9.229c6.385-6.229,13.681-12.783,21.524-19.446
						c7.865-6.628,15.468-12.83,22.845-17.868c1.867-1.226,3.684-2.437,5.688-3.257c1.048-0.438,2.22-0.291,3.195,0.062
						c0.994,0.348,1.889,0.853,2.737,1.385c3.339,2.223,5.917,4.93,8.161,7.445c4.452,5.088,7.408,9.729,9.158,13.072
						c0.871,1.677,1.424,3.042,1.729,3.988C293.676,269.337,293.732,269.861,293.732,269.861z"/>
				</g>
			</g>
			<g>
				<g>
					<path style="fill:#263238;" d="M290.793,241.618c-0.025,0.028-0.398-0.259-1.063-0.786c-0.665-0.527-1.629-1.286-2.857-2.171
						c-2.445-1.751-6.031-4.047-10.49-5.198c-4.459-1.14-8.76-0.557-11.518,0.593c-2.802,1.131-4.125,2.558-4.198,2.455
						c-0.012-0.013,0.065-0.103,0.224-0.262c0.165-0.151,0.387-0.404,0.729-0.662c0.653-0.553,1.697-1.249,3.103-1.871
						c2.789-1.268,7.212-1.929,11.788-0.758c4.566,1.18,8.176,3.569,10.581,5.407c1.21,0.929,2.143,1.736,2.77,2.312
						C290.487,241.253,290.815,241.592,290.793,241.618z"/>
				</g>
			</g>
			<g>
				<g>
					<path style="fill:#263238;" d="M197.504,307.395c-0.03,0.02-0.207-0.193-0.505-0.601c-0.305-0.402-0.689-1.025-1.108-1.825
						c-0.844-1.595-1.715-3.982-2.035-6.736c-0.31-2.756,0.002-5.278,0.464-7.022c0.228-0.874,0.462-1.568,0.669-2.028
						c0.198-0.464,0.323-0.712,0.357-0.699c0.086,0.033-0.308,1.071-0.667,2.809c-0.363,1.734-0.607,4.193-0.305,6.881
						c0.312,2.686,1.104,5.026,1.848,6.634C196.962,306.421,197.58,307.344,197.504,307.395z"/>
				</g>
			</g>
			<g>
				<g>
					<path style="fill:#263238;" d="M271.077,248.858c0.094,0.109-12.684,11.267-28.536,24.919
						c-15.858,13.657-28.785,24.636-28.878,24.527c-0.094-0.109,12.681-11.265,28.538-24.922
						C258.054,259.731,270.983,248.749,271.077,248.858z"/>
				</g>
			</g>
			<g>
				<polygon style="fill:#FFFFFF;" points="236.064,289.601 242.37,296.439 265.044,277.099 258.446,270.039 				"/>
				<path style="fill:#263238;" d="M242.368,296.473l-0.017-0.018l-6.323-6.857l0.019-0.017l22.4-19.578l0.017,0.019l6.615,7.078
					l-0.02,0.017L242.368,296.473z M236.1,289.603l6.272,6.802l22.635-19.308l-6.564-7.022L236.1,289.603z"/>
			</g>
		</g>
		<g style="opacity:0.3;">
			<g>
				<path d="M254.393,206.001c17.915-0.768,36.275-7.209,49.566-19.246c-7.055,2.831-13.592,5.601-20.475,8.246
					C273.815,198.718,264.067,202.333,254.393,206.001"/>
			</g>
		</g>
		<g style="opacity:0.3;">
			<g>
				<path d="M196.712,384.069c32.931,11.872,70.456,18.124,103.453,6.38c-9.602,7.799-22.723,11.504-35.091,11.722
					C241.151,402.594,216.945,396.84,196.712,384.069"/>
			</g>
		</g>
		<g>
			<path style="fill:#B56760;" d="M317.762,396.059c-0.598,0.17-6.22,5.183-8.915,8.915c-2.695,3.732-10.851,12.717-9.814,14.79
				s5.02,2.957,8.13,0.469c3.11-2.488,10.23-7.887,10.23-7.887l11.147,23.405l2.176-1.805l8.357-19.565l5.607-8.936l-17.831-13.048
				C326.707,392.351,321.452,395.009,317.762,396.059z"/>
		</g>
		<g style="opacity:0.3;">
			<g>
				<path d="M322.499,284.706c6.622-6.57,9.83-16.066,10.019-25.392c0.189-9.326-2.952-19.58-6.621-28.156
					c-3.067,19.048-3.985,38.881-5.227,57.666"/>
			</g>
		</g>
	</g>
</g>
</svg>
